# xmcd CD database file
#
# Track frame offsets:
#	187
#	25100
#	48227
#	73097
#
# Disc length: 1282 seconds
#
# Revision: 0
# Processed by: cddbd v1.5PL3 Copyright (c) Steve Scherf et al.
# Submitted via: CDex 1.50
#
DISCID=2d050004
DTITLE=小泉今日子 - 自分を見つめて
DYEAR=1992
DGENRE=JPop
TTITLE0=自分を見つめて
TTITLE1=1992年、夏
TTITLE2=自分を見つめて(Karaoke)
TTITLE3=1992年、夏(Karaoke)
EXTD=YEAR: 1992
EXTT0=
EXTT1=
EXTT2=
EXTT3=
PLAYORDER=
